<svg version="1.1" viewBox="0.0 0.0 480.0 480.0" fill="none" stroke="none" stroke-linecap="square" stroke-miterlimit="10" xmlns:xlink="http://www.w3.org/1999/xlink" xmlns="http://www.w3.org/2000/svg"><clipPath id="g38d5cdc68d1_0_26.0"><path d="m0 0l480.0 0l0 480.0l-480.0 0l0 -480.0z" clip-rule="nonzero"/></clipPath><g clip-path="url(#g38d5cdc68d1_0_26.0)"><path fill="#000000" fill-opacity="0.0" d="m0 0l480.0 0l0 480.0l-480.0 0z" fill-rule="evenodd"/><path fill="#f1c232" d="m299.33957 252.41814l0 0c1.3862 -4.904068 6.469513 -7.771042 11.383453 -6.420273c4.9139404 1.3507843 7.817566 6.413254 6.502289 11.3368225z" fill-rule="evenodd"/><path fill="#f1c232" d="m354.99573 252.41814l0 0c1.3862305 -4.904068 6.469513 -7.771042 11.383453 -6.420273c4.913971 1.3507843 7.817566 6.413254 6.5023193 11.3368225z" fill-rule="evenodd"/><path fill="#6d9eeb" d="m327.62146 252.1919l0 0c1.3862305 -4.904068 6.469513 -7.771042 11.383453 -6.420273c4.913971 1.3507843 7.817566 6.413254 6.502289 11.336807z" fill-rule="evenodd"/><path fill="#f1c232" d="m274.11768 242.01964l0 0c1.3862305 -4.904068 6.4695435 -7.771042 11.383484 -6.420273c4.9139404 1.3507843 7.8175354 6.4132385 6.502289 11.3368225z" fill-rule="evenodd"/><path fill="#6d9eeb" d="m106.51475 150.32176l-3.9685059 14.775589l-36.960632 16.5l-23.73228 -32.75197l3.9685059 -14.775589l23.73228 32.75197z" fill-rule="evenodd"/><path stroke="#ffffff" stroke-width="0.5669291338582677" stroke-linejoin="round" stroke-linecap="butt" d="m106.51475 150.32176l-3.9685059 14.775589l-36.960632 16.5l-23.73228 -32.75197l3.9685059 -14.775589l23.73228 32.75197z" fill-rule="evenodd"/><path fill="#ffd966" d="m14.87671 249.5663l3.968505 -14.775589l36.96063 -16.484253l23.73228 32.767715l-3.9684982 14.775589l-23.732285 -32.767715z" fill-rule="evenodd"/><path stroke="#ffffff" stroke-width="0.5669291338582677" stroke-linejoin="round" stroke-linecap="butt" d="m14.87671 249.5663l3.968505 -14.775589l36.96063 -16.484253l23.73228 32.767715l-3.9684982 14.775589l-23.732285 -32.767715z" fill-rule="evenodd"/><path fill="#999999" d="m111.909935 151.74672l0 0c31.613152 8.963364 50.072548 41.75415 41.33767 73.4312c-8.734863 31.677063 -41.391518 50.37271 -73.13081 41.86679z" fill-rule="evenodd"/><path stroke="#ffffff" stroke-width="0.5669291338582677" stroke-linejoin="round" stroke-linecap="butt" d="m111.909935 151.74672l0 0c31.613152 8.963364 50.072548 41.75415 41.33767 73.4312c-8.734863 31.677063 -41.391518 50.37271 -73.13081 41.86679z" fill-rule="evenodd"/><path fill="#ffd966" d="m107.59472 167.07309l0 0c23.209938 6.574707 36.760475 30.644394 30.344887 53.90132c-6.4155884 23.256927 -30.393738 36.98802 -53.69632 30.749176z" fill-rule="evenodd"/><path stroke="#ffffff" stroke-width="4.0" stroke-linejoin="round" stroke-linecap="butt" d="m107.59472 167.07309l0 0c23.209938 6.574707 36.760475 30.644394 30.344887 53.90132c-6.4155884 23.256927 -30.393738 36.98802 -53.69632 30.749176z" fill-rule="evenodd"/><path fill="#000000" fill-opacity="0.0" d="m134.8698 218.14067l333.00787 0l0 67.87401l-333.00787 0z" fill-rule="evenodd"/><path fill="#b7b7b7" d="m236.54909 265.54068q-0.671875 0 -1.125 -0.4375q-0.4375 -0.4375 -0.4375 -1.078125l0 -10.40625q0 -2.484375 -0.9375 -4.078125q-0.9375 -1.59375 -2.5625 -2.390625q-1.609375 -0.8125 -3.65625 -0.8125q-1.953125 0 -3.546875 0.765625q-1.578125 0.75 -2.5 2.078125q-0.90625 1.3125 -0.90625 3.0l-2.203125 0q0.078125 -2.515625 1.359375 -4.5q1.28125 -1.984375 3.390625 -3.125q2.125 -1.140625 4.71875 -1.140625q2.84375 0 5.078125 1.1875q2.25 1.171875 3.546875 3.453125q1.296875 2.28125 1.296875 5.5625l0 10.40625q0 0.640625 -0.4375 1.078125q-0.4375 0.4375 -1.078125 0.4375zm-17.203125 0q-0.71875 0 -1.140625 -0.421875q-0.421875 -0.421875 -0.421875 -1.09375l0 -18.796875q0 -0.734375 0.421875 -1.140625q0.421875 -0.421875 1.140625 -0.421875q0.6875 0 1.109375 0.421875q0.421875 0.40625 0.421875 1.140625l0 18.796875q0 0.671875 -0.421875 1.09375q-0.421875 0.421875 -1.109375 0.421875z" fill-rule="nonzero"/><path fill="#cccccc" d="m253.42593 265.54068q-2.109375 0 -3.78125 -1.0q-1.65625 -1.0 -2.625 -2.734375q-0.953125 -1.75 -0.953125 -3.984375l0 -19.5625q0 -0.671875 0.421875 -1.109375q0.421875 -0.453125 1.09375 -0.453125q0.6875 0 1.125 0.453125q0.4375 0.4375 0.4375 1.109375l0 19.5625q0 2.03125 1.203125 3.34375q1.203125 1.296875 3.078125 1.296875l1.078125 0q0.640625 0 1.046875 0.4375q0.40625 0.4375 0.40625 1.125q0 0.671875 -0.484375 1.09375q-0.484375 0.421875 -1.203125 0.421875l-0.84375 0zm-9.953125 -18.40625q-0.609375 0 -1.015625 -0.375q-0.390625 -0.375 -0.390625 -0.9375q0 -0.59375 0.390625 -0.96875q0.40625 -0.390625 1.015625 -0.390625l10.203125 0q0.59375 0 0.984375 0.390625q0.40625 0.375 0.40625 0.96875q0 0.5625 -0.40625 0.9375q-0.390625 0.375 -0.984375 0.375l-10.203125 0z" fill-rule="nonzero"/><path fill="#999999" d="m274.63217 265.54068q-0.6875 0 -1.125 -0.4375q-0.4375 -0.4375 -0.4375 -1.125l0 -28.125q0 -0.671875 0.4375 -1.109375q0.4375 -0.4375 1.125 -0.4375l7.484375 0q2.90625 0 5.1875 1.21875q2.28125 1.21875 3.578125 3.40625q1.3125 2.171875 1.3125 5.015625q0 2.71875 -1.3125 4.84375q-1.296875 2.109375 -3.578125 3.3125q-2.28125 1.203125 -5.1875 1.203125l-5.921875 0l0 10.671875q0 0.6875 -0.453125 1.125q-0.4375 0.4375 -1.109375 0.4375zm16.71875 0q-0.515625 0 -0.828125 -0.203125q-0.296875 -0.203125 -0.53125 -0.59375l-7.6875 -12.25l3.125 -0.796875l7.15625 11.4375q0.609375 0.96875 0.21875 1.6875q-0.375 0.71875 -1.453125 0.71875zm-15.15625 -15.234375l5.921875 0q2.03125 0 3.609375 -0.8125q1.578125 -0.828125 2.5 -2.265625q0.921875 -1.453125 0.921875 -3.28125q0 -1.96875 -0.921875 -3.46875q-0.921875 -1.5 -2.5 -2.328125q-1.578125 -0.84375 -3.609375 -0.84375l-5.921875 0l0 13.0z" fill-rule="nonzero"/><path fill="#f1c232" d="m307.35214 265.7438q-3.203125 0 -5.734375 -1.4375q-2.515625 -1.453125 -3.953125 -3.96875q-1.4375 -2.515625 -1.4375 -5.71875q0 -3.234375 1.4375 -5.75q1.4375 -2.53125 3.953125 -3.96875q2.53125 -1.4375 5.734375 -1.4375q3.203125 0 5.703125 1.4375q2.5 1.4375 3.9375 3.96875q1.4375 2.515625 1.484375 5.75q0 3.203125 -1.46875 5.71875q-1.453125 2.515625 -3.953125 3.96875q-2.5 1.4375 -5.703125 1.4375zm0 -2.796875q2.3125 0 4.15625 -1.078125q1.84375 -1.09375 2.875 -2.96875q1.046875 -1.875 1.046875 -4.28125q0 -2.390625 -1.046875 -4.296875q-1.03125 -1.90625 -2.875 -2.984375q-1.84375 -1.078125 -4.15625 -1.078125q-2.328125 0 -4.171875 1.078125q-1.828125 1.078125 -2.890625 2.984375q-1.0625 1.90625 -1.0625 4.296875q0 2.40625 1.0625 4.28125q1.0625 1.875 2.890625 2.96875q1.84375 1.078125 4.171875 1.078125z" fill-rule="nonzero"/><path fill="#6d9eeb" d="m335.5571 265.7438q-3.125 0 -5.625 -1.4375q-2.5 -1.453125 -3.96875 -3.953125q-1.453125 -2.5 -1.5 -5.609375l0 -18.890625q0 -0.71875 0.421875 -1.125q0.421875 -0.421875 1.140625 -0.421875q0.6875 0 1.109375 0.421875q0.421875 0.40625 0.421875 1.125l0 11.765625q1.3125 -1.875 3.484375 -3.015625q2.1875 -1.140625 4.875 -1.140625q3.078125 0 5.515625 1.46875q2.4375 1.453125 3.859375 3.96875q1.421875 2.515625 1.421875 5.6875q0 3.1875 -1.46875 5.71875q-1.453125 2.515625 -3.984375 3.984375q-2.515625 1.453125 -5.703125 1.453125zm0 -2.796875q2.3125 0 4.15625 -1.09375q1.84375 -1.109375 2.890625 -2.984375q1.0625 -1.890625 1.0625 -4.28125q0 -2.359375 -1.0625 -4.265625q-1.046875 -1.90625 -2.890625 -2.984375q-1.84375 -1.078125 -4.15625 -1.078125q-2.28125 0 -4.125 1.078125q-1.84375 1.078125 -2.890625 2.984375q-1.03125 1.90625 -1.03125 4.265625q0 2.390625 1.03125 4.28125q1.046875 1.875 2.890625 2.984375q1.84375 1.09375 4.125 1.09375z" fill-rule="nonzero"/><path fill="#f1c232" d="m362.71207 265.7438q-3.203125 0 -5.734375 -1.4375q-2.515625 -1.453125 -3.953125 -3.96875q-1.4375 -2.515625 -1.4375 -5.71875q0 -3.234375 1.4375 -5.75q1.4375 -2.53125 3.953125 -3.96875q2.53125 -1.4375 5.734375 -1.4375q3.203125 0 5.703125 1.4375q2.5 1.4375 3.9375 3.96875q1.4375 2.515625 1.484375 5.75q0 3.203125 -1.46875 5.71875q-1.453125 2.515625 -3.953125 3.96875q-2.5 1.4375 -5.703125 1.4375zm0 -2.796875q2.3125 0 4.15625 -1.078125q1.84375 -1.09375 2.875 -2.96875q1.046875 -1.875 1.046875 -4.28125q0 -2.390625 -1.046875 -4.296875q-1.03125 -1.90625 -2.875 -2.984375q-1.84375 -1.078125 -4.15625 -1.078125q-2.328125 0 -4.171875 1.078125q-1.828125 1.078125 -2.890625 2.984375q-1.0625 1.90625 -1.0625 4.296875q0 2.40625 1.0625 4.28125q1.0625 1.875 2.890625 2.96875q1.84375 1.078125 4.171875 1.078125z" fill-rule="nonzero"/><path fill="#b7b7b7" d="m388.3858 265.54068q-2.109375 0 -3.78125 -1.0q-1.65625 -1.0 -2.625 -2.734375q-0.953125 -1.75 -0.953125 -3.984375l0 -19.5625q0 -0.671875 0.421875 -1.109375q0.421875 -0.453125 1.09375 -0.453125q0.6875 0 1.125 0.453125q0.4375 0.4375 0.4375 1.109375l0 19.5625q0 2.03125 1.203125 3.34375q1.203125 1.296875 3.078125 1.296875l1.078125 0q0.640625 0 1.046875 0.4375q0.40625 0.4375 0.40625 1.125q0 0.671875 -0.484375 1.09375q-0.484375 0.421875 -1.203125 0.421875l-0.84375 0zm-9.953125 -18.40625q-0.609375 0 -1.015625 -0.375q-0.390625 -0.375 -0.390625 -0.9375q0 -0.59375 0.390625 -0.96875q0.40625 -0.390625 1.015625 -0.390625l10.203125 0q0.59375 0 0.984375 0.390625q0.40625 0.375 0.40625 0.96875q0 0.5625 -0.40625 0.9375q-0.390625 0.375 -0.984375 0.375l-10.203125 0z" fill-rule="nonzero"/><path fill="#cccccc" d="m398.1064 265.54068q-0.71875 0 -1.140625 -0.421875q-0.421875 -0.421875 -0.421875 -1.140625l0 -18.75q0 -0.734375 0.421875 -1.140625q0.421875 -0.421875 1.140625 -0.421875q0.6875 0 1.09375 0.421875q0.421875 0.40625 0.421875 1.140625l0 18.75q0 0.71875 -0.421875 1.140625q-0.40625 0.421875 -1.09375 0.421875zm-0.03125 -26.046875q-0.875 0 -1.515625 -0.625q-0.640625 -0.640625 -0.640625 -1.5625q0 -1.0 0.65625 -1.578125q0.65625 -0.59375 1.53125 -0.59375q0.84375 0 1.5 0.59375q0.671875 0.578125 0.671875 1.578125q0 0.921875 -0.640625 1.5625q-0.640625 0.625 -1.5625 0.625z" fill-rule="nonzero"/><path fill="#000000" fill-opacity="0.0" d="m75.14173 285.4042l341.07086 0" fill-rule="evenodd"/><path stroke="#cccccc" stroke-width="1.0" stroke-linejoin="round" stroke-linecap="butt" d="m75.14173 285.4042l341.07086 0" fill-rule="evenodd"/><path fill="#000000" fill-opacity="0.0" d="m192.11542 213.38641l42.80316 11.464569l-17.574814 65.543304l-42.803146 -11.464569z" fill-rule="evenodd"/><path fill="#f1c232" d="m201.53563 265.19064q-3.1242523 -0.8368225 -5.170883 -2.8569946q-2.0466156 -2.020172 -2.7685547 -4.8178406q-0.7178955 -2.8127441 0.119781494 -5.9367676q0.849823 -3.169281 2.795288 -5.236328q1.9454803 -2.0670319 4.596817 -2.8450623q2.6513367 -0.7780304 5.6246643 0.018356323q2.9280396 0.784256 4.756363 2.7136078q1.832367 1.9142609 2.3934174 4.5879517q0.5610657 2.6736908 -0.24829102 5.6920776q-0.16186523 0.6036682 -0.65545654 0.8758545q-0.47444153 0.26113892 -1.0932465 0.09539795l-16.421173 -4.3983154l0.6636658 -2.4750671l16.738113 4.4832153l-1.983963 0.7626648q0.6331482 -2.2406006 0.26141357 -4.2327423q-0.36769104 -2.0072174 -1.6702881 -3.423706q-1.2985382 -1.4315796 -3.456833 -2.009674q-2.2035675 -0.59020996 -4.1430206 0.006439209q-1.9394531 0.5966644 -3.353836 2.191269q-1.3952332 1.5835724 -2.0265198 3.9378967q-0.6313019 2.3543396 -0.09461975 4.455353q0.54071045 2.085907 2.04245 3.6042786q1.5017548 1.5183411 3.8109741 2.1368713q1.3885651 0.37191772 2.9217072 0.2649231q1.548233 -0.10293579 2.6027832 -0.5969238q0.51971436 -0.24899292 1.0520172 -0.12261963q0.5473938 0.13046265 0.8588867 0.53738403q0.37261963 0.6012573 0.24201965 1.1486206q-0.115493774 0.5513916 -0.6845398 0.80337524q-1.5591736 0.7470398 -3.730606 0.941864q-2.1522827 0.18377686 -3.978531 -0.3053589z" fill-rule="nonzero"/><path fill="#f1c232" d="m195.26868 251.96565l0 0c1.3862305 -4.904068 6.469528 -7.771042 11.383469 -6.420273c4.9139557 1.3507843 7.8175507 6.4132385 6.502289 11.3368225z" fill-rule="evenodd"/><path fill="#000000" fill-opacity="0.0" d="m143.66293 212.70767l42.803146 11.464569l-17.574799 65.543304l-42.803146 -11.464569z" fill-rule="evenodd"/><path fill="#f1c232" d="m153.08313 264.5119q-3.124237 -0.8368225 -5.170868 -2.8569946q-2.0466309 -2.020172 -2.7685547 -4.81781q-0.7178955 -2.8127747 0.119781494 -5.936783q0.84980774 -3.1692963 2.795288 -5.236328q1.9454803 -2.067047 4.596817 -2.8450623q2.6513367 -0.7780304 5.6246643 0.018356323q2.9280396 0.784256 4.756363 2.7136078q1.832367 1.9142609 2.3934174 4.5879517q0.5610504 2.6736908 -0.24829102 5.6920624q-0.16186523 0.6036682 -0.65545654 0.8758545q-0.47444153 0.26113892 -1.0932617 0.09539795l-16.421173 -4.3983l0.6636658 -2.4750671l16.738129 4.4832l-1.983963 0.7626648q0.6331482 -2.2406006 0.26141357 -4.232727q-0.3677063 -2.0072327 -1.6702881 -3.4237213q-1.2985382 -1.4315796 -3.456833 -2.0096588q-2.2035828 -0.5902252 -4.143036 0.006439209q-1.9394531 0.59664917 -3.3538208 2.191269q-1.3952332 1.5835571 -2.026535 3.9378967q-0.6312866 2.3543243 -0.09461975 4.4553375q0.54071045 2.085907 2.0424652 3.6042786q1.5017548 1.5183716 3.8109741 2.1368713q1.3885498 0.37191772 2.921692 0.2649536q1.5482483 -0.10296631 2.6027832 -0.5969238q0.5197296 -0.24902344 1.0520325 -0.12261963q0.5473938 0.13043213 0.85887146 0.53738403q0.37261963 0.6012573 0.24203491 1.1485901q-0.115493774 0.5513916 -0.68455505 0.80337524q-1.5591736 0.7470398 -3.7305908 0.941864q-2.1522827 0.18380737 -3.9785461 -0.3053589z" fill-rule="nonzero"/><path fill="#f1c232" d="m146.8162 251.28691l0 0c1.3862152 -4.9040527 6.469513 -7.771042 11.383469 -6.4202576c4.9139404 1.350769 7.8175507 6.4132385 6.502289 11.336807z" fill-rule="evenodd"/><path fill="#000000" fill-opacity="0.0" d="m168.90495 213.2699l42.803146 11.464569l-17.574799 65.543304l-42.803146 -11.464569z" fill-rule="evenodd"/><path fill="#6d9eeb" d="m178.17422 265.0337q-3.0487823 -0.81658936 -5.057129 -2.8588562q-1.989212 -2.0533142 -2.7111511 -4.8509827q-0.71788025 -2.8127594 0.0995636 -5.861313q0.8295746 -3.0938416 2.7941895 -5.171921q1.9646149 -2.0780945 4.6200104 -2.8712006q2.6594238 -0.8082123 5.6327515 -0.0118255615q2.3695984 0.6346741 4.095871 2.099945q1.7454224 1.4542236 2.7569733 3.7147827q0.3012085 0.5659485 0.03883362 1.0618286q-0.24324036 0.4848175 -0.8918152 0.7316742q-0.5075836 0.20373535 -1.0115509 -0.028305054q-0.48483276 -0.24308777 -0.75180054 -0.81604004q-1.5498657 -3.148819 -4.9608765 -4.062439q-2.15831 -0.5780945 -4.082672 0.022613525q-1.9243469 0.60069275 -3.3195953 2.1842499q-1.3911743 1.5684814 -2.0224762 3.9228058q-0.62319946 2.3241425 -0.14285278 4.3938904q0.48034668 2.0697632 1.9327698 3.591095q1.4715576 1.5102539 3.7053223 2.108551q1.5092926 0.40426636 2.8712769 0.33233643q1.3619843 -0.07196045 2.5545502 -0.65838623q0.5730896 -0.26705933 1.0792542 -0.16384888q0.5252991 0.092163086 0.8548279 0.55249023q0.3394928 0.54385376 0.2541809 1.1033325q-0.08531189 0.55947876 -0.6090851 0.8235779q-3.5184326 1.8398438 -7.72937 0.7119446z" fill-rule="nonzero"/><path fill="#000000" fill-opacity="0.0" d="m404.52487 213.2699l42.80313 11.464569l-17.574799 65.543304l-42.80316 -11.464569z" fill-rule="evenodd"/><path fill="#a4c2f4" d="m413.79413 265.0337q-3.048767 -0.81658936 -5.057129 -2.8588562q-1.9891968 -2.0533142 -2.7111511 -4.8509827q-0.717865 -2.8127594 0.09954834 -5.861313q0.82958984 -3.0938416 2.79422 -5.171921q1.9645996 -2.0780945 4.619995 -2.8712006q2.6594238 -0.8082123 5.6327515 -0.0118255615q2.3695984 0.6346741 4.095886 2.099945q1.7454224 1.4542236 2.756958 3.7147827q0.3012085 0.5659485 0.038848877 1.0618286q-0.24325562 0.4848175 -0.8918152 0.7316742q-0.5075989 0.20373535 -1.0115662 -0.028305054q-0.48483276 -0.24308777 -0.75180054 -0.81604004q-1.5498657 -3.148819 -4.9608765 -4.062439q-2.1582947 -0.5780945 -4.082672 0.022613525q-1.9243469 0.60069275 -3.31958 2.1842499q-1.3911743 1.5684814 -2.0224915 3.9228058q-0.62319946 2.3241425 -0.14285278 4.3938904q0.48034668 2.0697632 1.9327698 3.591095q1.4715576 1.5102539 3.7053223 2.108551q1.5093079 0.40426636 2.8712769 0.33233643q1.3619995 -0.07196045 2.5545654 -0.65838623q0.5730896 -0.26705933 1.0792542 -0.16384888q0.5252991 0.092163086 0.8548279 0.55249023q0.33947754 0.54385376 0.2541809 1.1033325q-0.08532715 0.55947876 -0.60910034 0.8235779q-3.5184326 1.8398438 -7.72937 0.7119446z" fill-rule="nonzero"/><path fill="#000000" fill-opacity="0.0" d="m427.14236 214.32053l42.80313 11.464569l-17.574799 65.543304l-42.80316 -11.464569z" fill-rule="evenodd"/><path fill="#cccccc" d="m434.35898 265.53455q-2.2790527 -0.6104431 -4.3215027 -1.9824524q-2.023346 -1.3830872 -2.9991455 -3.2943726q-0.29714966 -0.5810547 -0.06790161 -1.1343079q0.23327637 -0.5683899 0.8597717 -0.8535156q0.62942505 -0.23580933 1.1827087 -0.006713867q0.5683899 0.23312378 0.84750366 0.7607727q0.629303 1.3332214 1.9958801 2.3301086q1.3706055 0.981781 3.2270508 1.4790344q2.8676758 0.7680664 4.398529 0.12667847q1.5499878 -0.6524353 1.9524536 -2.0328064q0.37231445 -1.3884583 -0.6979675 -2.6456604q-1.0662537 -1.2723083 -3.9362183 -2.5748138q-3.743164 -1.665802 -5.1566467 -3.6943207q-1.3943481 -2.039566 -0.8277893 -4.1524353q0.53012085 -1.9770355 1.923584 -3.011078q1.4085999 -1.030014 3.3182983 -1.2140808q1.9137268 -0.19914246 3.996582 0.35873413q2.5959778 0.69532776 4.22876 2.0870209q1.632782 1.3916931 2.3943176 3.1970673q0.23971558 0.6141968 0.018585205 1.1372833q-0.21710205 0.50801086 -0.85354614 0.70957947q-0.52560425 0.15037537 -1.105072 -0.101867676q-0.57943726 -0.2522583 -0.8765869 -0.8332977q-0.6664734 -1.3755188 -1.8117981 -2.2322693q-1.1261902 -0.8677826 -2.7864075 -1.3124695q-2.1281128 -0.5700073 -3.6457214 -0.0382843q-1.4984741 0.5206604 -1.8505554 1.8336487q-0.23873901 0.8904114 0.06616211 1.6838226q0.30899048 0.7783203 1.3526917 1.5916595q1.0588074 0.8173981 3.0787354 1.7304688q2.7724 1.2440186 4.2049255 2.5982666q1.4476013 1.3582764 1.8291931 2.7707214q0.396698 1.4164734 0.016296387 2.8351135q-0.48965454 1.8261108 -1.9295044 2.912445q-1.4207153 1.0752869 -3.5026855 1.3587952q-2.0779114 0.2684021 -4.5229797 -0.3864746z" fill-rule="nonzero"/><path fill="#000000" fill-opacity="0.0" d="m22.35173 292.58005l447.59058 0l0 46.86615l-447.59058 0z" fill-rule="evenodd"/><path fill="#b7b7b7" d="m73.35571 323.34006q-0.390625 0 -0.640625 -0.25q-0.25 -0.25 -0.25 -0.640625l0 -15.921875q0 -0.390625 0.25 -0.625q0.25 -0.25 0.640625 -0.25l4.078125 0q1.9375 0 3.5625 0.640625q1.625 0.640625 2.796875 1.828125q1.171875 1.1875 1.8125 2.796875q0.65625 1.609375 0.65625 3.5625q0 1.953125 -0.65625 3.578125q-0.640625 1.609375 -1.8125 2.796875q-1.171875 1.1875 -2.796875 1.84375q-1.625 0.640625 -3.5625 0.640625l-4.078125 0zm0.875 -1.578125l3.203125 0q2.078125 0 3.671875 -0.9375q1.59375 -0.953125 2.5 -2.59375q0.90625 -1.640625 0.90625 -3.75q0 -2.109375 -0.90625 -3.75q-0.90625 -1.640625 -2.5 -2.5625q-1.59375 -0.9375 -3.671875 -0.9375l-3.203125 0l0 14.53125zm21.070282 1.6875q-1.828125 0 -3.25 -0.796875q-1.421875 -0.8125 -2.234375 -2.234375q-0.796875 -1.421875 -0.796875 -3.265625q0 -1.859375 0.765625 -3.265625q0.765625 -1.421875 2.09375 -2.234375q1.34375 -0.8125 3.078125 -0.8125q1.734375 0 3.0 0.78125q1.28125 0.78125 1.984375 2.171875q0.703125 1.375 0.703125 3.140625q0 0.359375 -0.234375 0.578125q-0.21875 0.203125 -0.578125 0.203125l-9.625 0l0 -1.4375l9.8125 0l-0.984375 0.703125q0.03125 -1.328125 -0.46875 -2.359375q-0.5 -1.046875 -1.421875 -1.625q-0.90625 -0.59375 -2.1875 -0.59375q-1.28125 0 -2.265625 0.609375q-0.96875 0.609375 -1.5 1.6875q-0.53125 1.078125 -0.53125 2.453125q0 1.390625 0.59375 2.453125q0.609375 1.0625 1.640625 1.671875q1.046875 0.609375 2.40625 0.609375q0.8125 0 1.640625 -0.28125q0.828125 -0.28125 1.328125 -0.71875q0.25 -0.203125 0.5625 -0.203125q0.328125 -0.015625 0.546875 0.171875q0.296875 0.265625 0.296875 0.59375q0.015625 0.3125 -0.25 0.53125q-0.75 0.640625 -1.90625 1.0625q-1.15625 0.40625 -2.21875 0.40625zm13.363815 0q-1.78125 0 -3.1875 -0.828125q-1.390625 -0.828125 -2.203125 -2.25q-0.796875 -1.421875 -0.796875 -3.21875q0 -1.8125 0.765625 -3.234375q0.78125 -1.4375 2.109375 -2.25q1.34375 -0.828125 3.09375 -0.828125q1.375 0 2.546875 0.546875q1.171875 0.53125 2.046875 1.625q0.25 0.265625 0.171875 0.578125q-0.0625 0.296875 -0.375 0.53125q-0.25 0.171875 -0.5625 0.125q-0.296875 -0.0625 -0.53125 -0.328125q-1.3125 -1.5 -3.296875 -1.5q-1.265625 0 -2.234375 0.609375q-0.96875 0.609375 -1.5 1.6875q-0.53125 1.0625 -0.53125 2.4375q0 1.359375 0.5625 2.421875q0.578125 1.0625 1.59375 1.6875q1.015625 0.609375 2.328125 0.609375q0.890625 0 1.625 -0.234375q0.734375 -0.25 1.296875 -0.75q0.28125 -0.21875 0.5625 -0.234375q0.296875 -0.03125 0.546875 0.171875q0.28125 0.25 0.3125 0.578125q0.03125 0.3125 -0.21875 0.53125q-1.65625 1.515625 -4.125 1.515625zm13.574188 0q-1.828125 0 -3.25 -0.796875q-1.421875 -0.8125 -2.234375 -2.234375q-0.796875 -1.421875 -0.796875 -3.265625q0 -1.859375 0.765625 -3.265625q0.765625 -1.421875 2.09375 -2.234375q1.34375 -0.8125 3.078125 -0.8125q1.734375 0 3.0 0.78125q1.28125 0.78125 1.984375 2.171875q0.703125 1.375 0.703125 3.140625q0 0.359375 -0.234375 0.578125q-0.21875 0.203125 -0.578125 0.203125l-9.625 0l0 -1.4375l9.8125 0l-0.984375 0.703125q0.03125 -1.328125 -0.46875 -2.359375q-0.5 -1.046875 -1.421875 -1.625q-0.90625 -0.59375 -2.1875 -0.59375q-1.28125 0 -2.265625 0.609375q-0.96875 0.609375 -1.5 1.6875q-0.53125 1.078125 -0.53125 2.453125q0 1.390625 0.59375 2.453125q0.609375 1.0625 1.640625 1.671875q1.046875 0.609375 2.40625 0.609375q0.8125 0 1.640625 -0.28125q0.828125 -0.28125 1.328125 -0.71875q0.25 -0.203125 0.5625 -0.203125q0.328125 -0.015625 0.546875 0.171875q0.296875 0.265625 0.296875 0.59375q0.015625 0.3125 -0.25 0.53125q-0.75 0.640625 -1.90625 1.0625q-1.15625 0.40625 -2.21875 0.40625zm18.926529 -0.109375q-0.390625 0 -0.640625 -0.25q-0.25 -0.25 -0.25 -0.609375l0 -5.890625q0 -1.40625 -0.53125 -2.3125q-0.53125 -0.90625 -1.453125 -1.359375q-0.921875 -0.453125 -2.078125 -0.453125q-1.109375 0 -2.0 0.4375q-0.890625 0.421875 -1.421875 1.171875q-0.515625 0.75 -0.515625 1.703125l-1.25 0q0.046875 -1.4375 0.765625 -2.546875q0.734375 -1.125 1.9375 -1.765625q1.203125 -0.65625 2.671875 -0.65625q1.609375 0 2.875 0.671875q1.265625 0.671875 2.0 1.96875q0.75 1.28125 0.75 3.140625l0 5.890625q0 0.359375 -0.25 0.609375q-0.25 0.25 -0.609375 0.25zm-9.75 0q-0.40625 0 -0.65625 -0.234375q-0.234375 -0.234375 -0.234375 -0.625l0 -10.65625q0 -0.40625 0.234375 -0.640625q0.25 -0.234375 0.65625 -0.234375q0.390625 0 0.625 0.234375q0.234375 0.234375 0.234375 0.640625l0 10.65625q0 0.390625 -0.234375 0.625q-0.234375 0.234375 -0.625 0.234375zm19.306992 0q-1.203125 0 -2.140625 -0.5625q-0.9375 -0.5625 -1.484375 -1.546875q-0.546875 -1.0 -0.546875 -2.265625l0 -11.078125q0 -0.390625 0.234375 -0.625q0.234375 -0.25 0.625 -0.25q0.390625 0 0.640625 0.25q0.25 0.234375 0.25 0.625l0 11.078125q0 1.15625 0.671875 1.890625q0.6875 0.734375 1.75 0.734375l0.609375 0q0.359375 0 0.578125 0.25q0.234375 0.25 0.234375 0.640625q0 0.390625 -0.28125 0.625q-0.265625 0.234375 -0.671875 0.234375l-0.46875 0zm-5.640625 -10.421875q-0.34375 0 -0.578125 -0.21875q-0.21875 -0.21875 -0.21875 -0.53125q0 -0.34375 0.21875 -0.546875q0.234375 -0.21875 0.578125 -0.21875l5.765625 0q0.34375 0 0.5625 0.21875q0.234375 0.203125 0.234375 0.546875q0 0.3125 -0.234375 0.53125q-0.21875 0.21875 -0.5625 0.21875l-5.765625 0zm27.589798 15.71875q-0.390625 0 -0.640625 -0.234375q-0.234375 -0.234375 -0.234375 -0.640625l0 -6.671875q-0.75 1.078125 -1.984375 1.71875q-1.21875 0.640625 -2.734375 0.640625q-1.75 0 -3.140625 -0.828125q-1.375 -0.828125 -2.1875 -2.25q-0.796875 -1.421875 -0.796875 -3.21875q0 -1.8125 0.828125 -3.234375q0.828125 -1.4375 2.25 -2.25q1.4375 -0.828125 3.234375 -0.828125q1.765625 0 3.171875 0.8125q1.421875 0.8125 2.25 2.234375q0.828125 1.40625 0.875 3.171875l0 10.703125q0 0.40625 -0.25 0.640625q-0.25 0.234375 -0.640625 0.234375zm-5.40625 -6.765625q1.3125 0 2.34375 -0.609375q1.03125 -0.625 1.625 -1.6875q0.59375 -1.078125 0.59375 -2.421875q0 -1.359375 -0.59375 -2.421875q-0.59375 -1.0625 -1.625 -1.6875q-1.03125 -0.625 -2.34375 -0.625q-1.296875 0 -2.34375 0.625q-1.046875 0.625 -1.65625 1.6875q-0.609375 1.0625 -0.609375 2.421875q0 1.34375 0.609375 2.421875q0.609375 1.0625 1.65625 1.6875q1.046875 0.609375 2.34375 0.609375zm15.767929 1.609375q-1.609375 0 -2.890625 -0.671875q-1.265625 -0.671875 -2.0 -1.953125q-0.734375 -1.296875 -0.734375 -3.15625l0 -5.890625q0 -0.359375 0.25 -0.609375q0.25 -0.25 0.609375 -0.25q0.390625 0 0.640625 0.25q0.25 0.25 0.25 0.609375l0 5.890625q0 1.40625 0.53125 2.3125q0.53125 0.90625 1.4375 1.359375q0.921875 0.453125 2.078125 0.453125q1.109375 0 2.0 -0.421875q0.90625 -0.4375 1.421875 -1.1875q0.515625 -0.75 0.515625 -1.703125l1.25 0q-0.0625 1.4375 -0.78125 2.5625q-0.703125 1.109375 -1.90625 1.765625q-1.203125 0.640625 -2.671875 0.640625zm4.984375 -0.140625q-0.390625 0 -0.640625 -0.234375q-0.234375 -0.234375 -0.234375 -0.65625l0 -10.640625q0 -0.390625 0.234375 -0.625q0.25 -0.234375 0.640625 -0.234375q0.375 0 0.625 0.234375q0.25 0.234375 0.25 0.625l0 10.640625q0 0.421875 -0.25 0.65625q-0.25 0.234375 -0.625 0.234375zm10.416367 0.109375q-1.75 0 -3.140625 -0.828125q-1.375 -0.828125 -2.1875 -2.25q-0.796875 -1.421875 -0.796875 -3.21875q0 -1.8125 0.828125 -3.234375q0.828125 -1.4375 2.25 -2.25q1.4375 -0.828125 3.234375 -0.828125q1.78125 0 3.1875 0.828125q1.421875 0.8125 2.25 2.25q0.828125 1.421875 0.859375 3.234375l-0.703125 0.546875q0 1.625 -0.765625 2.9375q-0.75 1.296875 -2.0625 2.0625q-1.296875 0.75 -2.953125 0.75zm0.1875 -1.578125q1.3125 0 2.34375 -0.609375q1.03125 -0.625 1.625 -1.6875q0.59375 -1.078125 0.59375 -2.421875q0 -1.359375 -0.59375 -2.421875q-0.59375 -1.0625 -1.625 -1.6875q-1.03125 -0.625 -2.34375 -0.625q-1.296875 0 -2.34375 0.625q-1.046875 0.625 -1.65625 1.6875q-0.609375 1.0625 -0.609375 2.421875q0 1.34375 0.609375 2.421875q0.609375 1.0625 1.65625 1.6875q1.046875 0.609375 2.34375 0.609375zm5.40625 1.46875q-0.390625 0 -0.640625 -0.234375q-0.234375 -0.234375 -0.234375 -0.625l0 -3.875l0.421875 -1.796875l1.34375 0.34375l0 5.328125q0 0.390625 -0.25 0.625q-0.25 0.234375 -0.640625 0.234375zm6.9632416 0q-0.90625 0 -1.625 -0.5q-0.71875 -0.5 -1.125 -1.375q-0.390625 -0.890625 -0.390625 -2.046875l0 -12.90625q0 -0.390625 0.234375 -0.625q0.25 -0.234375 0.640625 -0.234375q0.375 0 0.609375 0.234375q0.25 0.234375 0.25 0.625l0 12.90625q0 0.984375 0.390625 1.59375q0.390625 0.609375 1.015625 0.609375l0.5625 0q0.34375 0 0.546875 0.234375q0.203125 0.234375 0.203125 0.625q0 0.390625 -0.296875 0.625q-0.28125 0.234375 -0.734375 0.234375l-0.28125 0zm4.9515533 0q-0.40625 0 -0.640625 -0.234375q-0.234375 -0.234375 -0.234375 -0.65625l0 -10.625q0 -0.40625 0.234375 -0.640625q0.234375 -0.234375 0.640625 -0.234375q0.390625 0 0.625 0.234375q0.234375 0.234375 0.234375 0.640625l0 10.625q0 0.421875 -0.234375 0.65625q-0.234375 0.234375 -0.625 0.234375zm-0.015625 -14.75q-0.5 0 -0.875 -0.359375q-0.359375 -0.359375 -0.359375 -0.890625q0 -0.5625 0.375 -0.890625q0.375 -0.328125 0.875 -0.328125q0.46875 0 0.84375 0.328125q0.375 0.328125 0.375 0.890625q0 0.53125 -0.359375 0.890625q-0.359375 0.359375 -0.875 0.359375zm10.172638 14.75q-1.203125 0 -2.140625 -0.5625q-0.9375 -0.5625 -1.484375 -1.546875q-0.546875 -1.0 -0.546875 -2.265625l0 -11.078125q0 -0.390625 0.234375 -0.625q0.234375 -0.25 0.625 -0.25q0.390625 0 0.640625 0.25q0.25 0.234375 0.25 0.625l0 11.078125q0 1.15625 0.671875 1.890625q0.6875 0.734375 1.75 0.734375l0.609375 0q0.359375 0 0.578125 0.25q0.234375 0.25 0.234375 0.640625q0 0.390625 -0.28125 0.625q-0.265625 0.234375 -0.671875 0.234375l-0.46875 0zm-5.640625 -10.421875q-0.34375 0 -0.578125 -0.21875q-0.21875 -0.21875 -0.21875 -0.53125q0 -0.34375 0.21875 -0.546875q0.234375 -0.21875 0.578125 -0.21875l5.765625 0q0.34375 0 0.5625 0.21875q0.234375 0.203125 0.234375 0.546875q0 0.3125 -0.234375 0.53125q-0.21875 0.21875 -0.5625 0.21875l-5.765625 0zm12.029663 15.8125q-0.1875 0 -0.40625 -0.09375q-0.78125 -0.328125 -0.4375 -1.078125l7.3125 -16.140625q0.34375 -0.71875 1.09375 -0.40625q0.765625 0.328125 0.4375 1.0625l-7.34375 16.140625q-0.234375 0.515625 -0.65625 0.515625zm2.515625 -5.78125q-0.34375 0.171875 -0.640625 0.0625q-0.296875 -0.109375 -0.46875 -0.4375l-5.0625 -10.46875q-0.15625 -0.34375 -0.046875 -0.640625q0.125 -0.296875 0.453125 -0.453125q0.34375 -0.15625 0.640625 -0.046875q0.296875 0.09375 0.453125 0.4375l4.96875 10.46875q0.171875 0.34375 0.09375 0.640625q-0.0625 0.28125 -0.390625 0.4375zm8.181229 0.75q-0.546875 0 -0.9375 -0.375q-0.390625 -0.390625 -0.390625 -0.9375q0 -0.5625 0.390625 -0.9375q0.40625 -0.390625 0.9375 -0.390625q0.53125 0 0.921875 0.390625q0.390625 0.390625 0.390625 0.9375q0 0.515625 -0.375 0.921875q-0.375 0.390625 -0.9375 0.390625zm12.235123 -0.359375q-0.390625 0 -0.640625 -0.25q-0.25 -0.25 -0.25 -0.640625l0 -15.921875q0 -0.390625 0.25 -0.625q0.25 -0.25 0.640625 -0.25l4.078125 0q1.9375 0 3.5625 0.640625q1.625 0.640625 2.796875 1.828125q1.171875 1.1875 1.8125 2.796875q0.65625 1.609375 0.65625 3.5625q0 1.953125 -0.65625 3.578125q-0.640625 1.609375 -1.8125 2.796875q-1.171875 1.1875 -2.796875 1.84375q-1.625 0.640625 -3.5625 0.640625l-4.078125 0zm0.875 -1.578125l3.203125 0q2.078125 0 3.671875 -0.9375q1.59375 -0.953125 2.5 -2.59375q0.90625 -1.640625 0.90625 -3.75q0 -2.109375 -0.90625 -3.75q-0.90625 -1.640625 -2.5 -2.5625q-1.59375 -0.9375 -3.671875 -0.9375l-3.203125 0l0 14.53125zm21.070282 1.6875q-1.828125 0 -3.25 -0.796875q-1.421875 -0.8125 -2.234375 -2.234375q-0.796875 -1.421875 -0.796875 -3.265625q0 -1.859375 0.765625 -3.265625q0.765625 -1.421875 2.09375 -2.234375q1.34375 -0.8125 3.078125 -0.8125q1.734375 0 3.0 0.78125q1.28125 0.78125 1.984375 2.171875q0.703125 1.375 0.703125 3.140625q0 0.359375 -0.234375 0.578125q-0.21875 0.203125 -0.578125 0.203125l-9.625 0l0 -1.4375l9.8125 0l-0.984375 0.703125q0.03125 -1.328125 -0.46875 -2.359375q-0.5 -1.046875 -1.421875 -1.625q-0.90625 -0.59375 -2.1875 -0.59375q-1.28125 0 -2.265625 0.609375q-0.96875 0.609375 -1.5 1.6875q-0.53125 1.078125 -0.53125 2.453125q0 1.390625 0.59375 2.453125q0.609375 1.0625 1.640625 1.671875q1.046875 0.609375 2.40625 0.609375q0.8125 0 1.640625 -0.28125q0.828125 -0.28125 1.328125 -0.71875q0.25 -0.203125 0.5625 -0.203125q0.328125 -0.015625 0.546875 0.171875q0.296875 0.265625 0.296875 0.59375q0.015625 0.3125 -0.25 0.53125q-0.75 0.640625 -1.90625 1.0625q-1.15625 0.40625 -2.21875 0.40625zm13.363831 0q-1.78125 0 -3.1875 -0.828125q-1.390625 -0.828125 -2.203125 -2.25q-0.796875 -1.421875 -0.796875 -3.21875q0 -1.8125 0.765625 -3.234375q0.78125 -1.4375 2.109375 -2.25q1.34375 -0.828125 3.09375 -0.828125q1.375 0 2.546875 0.546875q1.171875 0.53125 2.046875 1.625q0.25 0.265625 0.171875 0.578125q-0.0625 0.296875 -0.375 0.53125q-0.25 0.171875 -0.5625 0.125q-0.296875 -0.0625 -0.53125 -0.328125q-1.3125 -1.5 -3.296875 -1.5q-1.265625 0 -2.234375 0.609375q-0.96875 0.609375 -1.5 1.6875q-0.53125 1.0625 -0.53125 2.4375q0 1.359375 0.5625 2.421875q0.578125 1.0625 1.59375 1.6875q1.015625 0.609375 2.328125 0.609375q0.890625 0 1.625 -0.234375q0.734375 -0.25 1.296875 -0.75q0.28125 -0.21875 0.5625 -0.234375q0.296875 -0.03125 0.546875 0.171875q0.28125 0.25 0.3125 0.578125q0.03125 0.3125 -0.21875 0.53125q-1.65625 1.515625 -4.125 1.515625zm13.574188 0q-1.828125 0 -3.25 -0.796875q-1.421875 -0.8125 -2.234375 -2.234375q-0.796875 -1.421875 -0.796875 -3.265625q0 -1.859375 0.765625 -3.265625q0.765625 -1.421875 2.09375 -2.234375q1.34375 -0.8125 3.078125 -0.8125q1.734375 0 3.0 0.78125q1.28125 0.78125 1.984375 2.171875q0.703125 1.375 0.703125 3.140625q0 0.359375 -0.234375 0.578125q-0.21875 0.203125 -0.578125 0.203125l-9.625 0l0 -1.4375l9.8125 0l-0.984375 0.703125q0.03125 -1.328125 -0.46875 -2.359375q-0.5 -1.046875 -1.421875 -1.625q-0.90625 -0.59375 -2.1875 -0.59375q-1.28125 0 -2.265625 0.609375q-0.96875 0.609375 -1.5 1.6875q-0.53125 1.078125 -0.53125 2.453125q0 1.390625 0.59375 2.453125q0.609375 1.0625 1.640625 1.671875q1.046875 0.609375 2.40625 0.609375q0.8125 0 1.640625 -0.28125q0.828125 -0.28125 1.328125 -0.71875q0.25 -0.203125 0.5625 -0.203125q0.328125 -0.015625 0.546875 0.171875q0.296875 0.265625 0.296875 0.59375q0.015625 0.3125 -0.25 0.53125q-0.75 0.640625 -1.90625 1.0625q-1.15625 0.40625 -2.21875 0.40625zm18.926544 -0.109375q-0.390625 0 -0.640625 -0.25q-0.25 -0.25 -0.25 -0.609375l0 -5.890625q0 -1.40625 -0.53125 -2.3125q-0.53125 -0.90625 -1.453125 -1.359375q-0.921875 -0.453125 -2.078125 -0.453125q-1.109375 0 -2.0 0.4375q-0.890625 0.421875 -1.421875 1.171875q-0.515625 0.75 -0.515625 1.703125l-1.25 0q0.046875 -1.4375 0.765625 -2.546875q0.734375 -1.125 1.9375 -1.765625q1.203125 -0.65625 2.671875 -0.65625q1.609375 0 2.875 0.671875q1.265625 0.671875 2.0 1.96875q0.75 1.28125 0.75 3.140625l0 5.890625q0 0.359375 -0.25 0.609375q-0.25 0.25 -0.609375 0.25zm-9.75 0q-0.40625 0 -0.65625 -0.234375q-0.234375 -0.234375 -0.234375 -0.625l0 -10.65625q0 -0.40625 0.234375 -0.640625q0.25 -0.234375 0.65625 -0.234375q0.390625 0 0.625 0.234375q0.234375 0.234375 0.234375 0.640625l0 10.65625q0 0.390625 -0.234375 0.625q-0.234375 0.234375 -0.625 0.234375zm19.306976 0q-1.203125 0 -2.140625 -0.5625q-0.9375 -0.5625 -1.484375 -1.546875q-0.546875 -1.0 -0.546875 -2.265625l0 -11.078125q0 -0.390625 0.234375 -0.625q0.234375 -0.25 0.625 -0.25q0.390625 0 0.640625 0.25q0.25 0.234375 0.25 0.625l0 11.078125q0 1.15625 0.671875 1.890625q0.6875 0.734375 1.75 0.734375l0.609375 0q0.359375 0 0.578125 0.25q0.234375 0.25 0.234375 0.640625q0 0.390625 -0.28125 0.625q-0.265625 0.234375 -0.671875 0.234375l-0.46875 0zm-5.640625 -10.421875q-0.34375 0 -0.578125 -0.21875q-0.21875 -0.21875 -0.21875 -0.53125q0 -0.34375 0.21875 -0.546875q0.234375 -0.21875 0.578125 -0.21875l5.765625 0q0.34375 0 0.5625 0.21875q0.234375 0.203125 0.234375 0.546875q0 0.3125 -0.234375 0.53125q-0.21875 0.21875 -0.5625 0.21875l-5.765625 0zm17.417877 15.71875q-0.40625 0 -0.65625 -0.234375q-0.234375 -0.234375 -0.234375 -0.640625l0 -10.703125q0.03125 -1.765625 0.859375 -3.171875q0.828125 -1.421875 2.234375 -2.234375q1.421875 -0.8125 3.1875 -0.8125q1.8125 0 3.234375 0.828125q1.4375 0.8125 2.265625 2.25q0.828125 1.421875 0.828125 3.234375q0 1.796875 -0.8125 3.21875q-0.796875 1.421875 -2.1875 2.25q-1.375 0.828125 -3.125 0.828125q-1.515625 0 -2.75 -0.640625q-1.234375 -0.640625 -1.984375 -1.71875l0 6.671875q0 0.40625 -0.234375 0.640625q-0.234375 0.234375 -0.625 0.234375zm5.390625 -6.765625q1.3125 0 2.359375 -0.609375q1.046875 -0.625 1.640625 -1.6875q0.59375 -1.078125 0.59375 -2.421875q0 -1.359375 -0.59375 -2.421875q-0.59375 -1.0625 -1.640625 -1.6875q-1.046875 -0.625 -2.359375 -0.625q-1.296875 0 -2.34375 0.625q-1.03125 0.625 -1.625 1.6875q-0.578125 1.0625 -0.578125 2.421875q0 1.34375 0.578125 2.421875q0.59375 1.0625 1.625 1.6875q1.046875 0.609375 2.34375 0.609375zm15.361694 1.578125q-1.828125 0 -3.25 -0.796875q-1.421875 -0.8125 -2.234375 -2.234375q-0.796875 -1.421875 -0.796875 -3.265625q0 -1.859375 0.765625 -3.265625q0.765625 -1.421875 2.09375 -2.234375q1.34375 -0.8125 3.078125 -0.8125q1.734375 0 3.0 0.78125q1.28125 0.78125 1.984375 2.171875q0.703125 1.375 0.703125 3.140625q0 0.359375 -0.234375 0.578125q-0.21875 0.203125 -0.578125 0.203125l-9.625 0l0 -1.4375l9.8125 0l-0.984375 0.703125q0.03125 -1.328125 -0.46875 -2.359375q-0.5 -1.046875 -1.421875 -1.625q-0.90625 -0.59375 -2.1875 -0.59375q-1.28125 0 -2.265625 0.609375q-0.96875 0.609375 -1.5 1.6875q-0.53125 1.078125 -0.53125 2.453125q0 1.390625 0.59375 2.453125q0.609375 1.0625 1.640625 1.671875q1.046875 0.609375 2.40625 0.609375q0.8125 0 1.640625 -0.28125q0.828125 -0.28125 1.328125 -0.71875q0.25 -0.203125 0.5625 -0.203125q0.328125 -0.015625 0.546875 0.171875q0.296875 0.265625 0.296875 0.59375q0.015625 0.3125 -0.25 0.53125q-0.75 0.640625 -1.90625 1.0625q-1.15625 0.40625 -2.21875 0.40625zm13.488831 0q-1.8125 0 -3.25 -0.8125q-1.421875 -0.8125 -2.25 -2.234375q-0.8125 -1.4375 -0.8125 -3.25q0 -1.828125 0.8125 -3.25q0.828125 -1.4375 2.25 -2.25q1.4375 -0.8125 3.25 -0.8125q1.8125 0 3.21875 0.8125q1.421875 0.8125 2.234375 2.25q0.8125 1.421875 0.84375 3.25q0 1.8125 -0.828125 3.25q-0.828125 1.421875 -2.25 2.234375q-1.40625 0.8125 -3.21875 0.8125zm0 -1.578125q1.3125 0 2.34375 -0.609375q1.046875 -0.625 1.625 -1.6875q0.59375 -1.0625 0.59375 -2.421875q0 -1.359375 -0.59375 -2.4375q-0.578125 -1.078125 -1.625 -1.6875q-1.03125 -0.609375 -2.34375 -0.609375q-1.328125 0 -2.375 0.609375q-1.03125 0.609375 -1.640625 1.6875q-0.59375 1.078125 -0.59375 2.4375q0 1.359375 0.59375 2.421875q0.609375 1.0625 1.640625 1.6875q1.046875 0.609375 2.375 0.609375zm10.572632 6.765625q-0.40625 0 -0.65625 -0.234375q-0.234375 -0.234375 -0.234375 -0.640625l0 -10.703125q0.03125 -1.765625 0.859375 -3.171875q0.828125 -1.421875 2.234375 -2.234375q1.421875 -0.8125 3.1875 -0.8125q1.8125 0 3.234375 0.828125q1.4375 0.8125 2.265625 2.25q0.828125 1.421875 0.828125 3.234375q0 1.796875 -0.8125 3.21875q-0.796875 1.421875 -2.1875 2.25q-1.375 0.828125 -3.125 0.828125q-1.515625 0 -2.75 -0.640625q-1.234375 -0.640625 -1.984375 -1.71875l0 6.671875q0 0.40625 -0.234375 0.640625q-0.234375 0.234375 -0.625 0.234375zm5.390625 -6.765625q1.3125 0 2.359375 -0.609375q1.046875 -0.625 1.640625 -1.6875q0.59375 -1.078125 0.59375 -2.421875q0 -1.359375 -0.59375 -2.421875q-0.59375 -1.0625 -1.640625 -1.6875q-1.046875 -0.625 -2.359375 -0.625q-1.296875 0 -2.34375 0.625q-1.03125 0.625 -1.625 1.6875q-0.578125 1.0625 -0.578125 2.421875q0 1.34375 0.578125 2.421875q0.59375 1.0625 1.625 1.6875q1.046875 0.609375 2.34375 0.609375zm12.424194 1.46875q-0.90625 0 -1.625 -0.5q-0.71875 -0.5 -1.125 -1.375q-0.390625 -0.890625 -0.390625 -2.046875l0 -12.90625q0 -0.390625 0.234375 -0.625q0.25 -0.234375 0.640625 -0.234375q0.375 0 0.609375 0.234375q0.25 0.234375 0.25 0.625l0 12.90625q0 0.984375 0.390625 1.59375q0.390625 0.609375 1.015625 0.609375l0.5625 0q0.34375 0 0.546875 0.234375q0.203125 0.234375 0.203125 0.625q0 0.390625 -0.296875 0.625q-0.28125 0.234375 -0.734375 0.234375l-0.28125 0zm8.646545 0.109375q-1.828125 0 -3.25 -0.796875q-1.421875 -0.8125 -2.234375 -2.234375q-0.796875 -1.421875 -0.796875 -3.265625q0 -1.859375 0.765625 -3.265625q0.765625 -1.421875 2.09375 -2.234375q1.34375 -0.8125 3.078125 -0.8125q1.734375 0 3.0 0.78125q1.28125 0.78125 1.984375 2.171875q0.703125 1.375 0.703125 3.140625q0 0.359375 -0.234375 0.578125q-0.21875 0.203125 -0.578125 0.203125l-9.625 0l0 -1.4375l9.8125 0l-0.984375 0.703125q0.03125 -1.328125 -0.46875 -2.359375q-0.5 -1.046875 -1.421875 -1.625q-0.90625 -0.59375 -2.1875 -0.59375q-1.28125 0 -2.265625 0.609375q-0.96875 0.609375 -1.5 1.6875q-0.53125 1.078125 -0.53125 2.453125q0 1.390625 0.59375 2.453125q0.609375 1.0625 1.640625 1.671875q1.046875 0.609375 2.40625 0.609375q0.8125 0 1.640625 -0.28125q0.828125 -0.28125 1.328125 -0.71875q0.25 -0.203125 0.5625 -0.203125q0.328125 -0.015625 0.546875 0.171875q0.296875 0.265625 0.296875 0.59375q0.015625 0.3125 -0.25 0.53125q-0.75 0.640625 -1.90625 1.0625q-1.15625 0.40625 -2.21875 0.40625z" fill-rule="nonzero"/></g></svg>